<svg width="1440" height="840" viewBox="0 0 1440 840" fill="none" xmlns="http://www.w3.org/2000/svg">
<g clip-path="url(#clip0_4042_2008)">
<rect width="1440" height="840" rx="8" fill="#9DB8EE"/>
<g opacity="0.1">
<path d="M1347.38 1.9955L1372.58 51.8438C1373.04 52.7497 1373.73 53.511 1374.6 54.0431C1375.46 54.5752 1376.46 54.8572 1377.47 54.8579H1379.1C1379.57 54.8546 1380.03 54.7314 1380.44 54.4998C1380.85 54.2682 1381.2 53.9358 1381.45 53.5339C1381.69 53.132 1381.83 52.6738 1381.86 52.2024C1381.88 51.7309 1381.78 51.2618 1381.57 50.8391L1357.46 2.17583C1354.21 -0.967056 1350.85 -1.02717 1347.38 1.9955Z" fill="white"/>
<path d="M1232.28 2.43223C1234.93 3.80617 1236.85 5.70393 1238.05 8.1255C1245.08 22.363 1252.35 36.9783 1259.87 51.9714C1260.27 52.7756 1260.89 53.4522 1261.65 53.9254C1262.42 54.3986 1263.3 54.6497 1264.2 54.6506H1273.01C1273.33 54.6528 1273.64 54.5738 1273.92 54.4212C1274.19 54.2686 1274.43 54.0475 1274.6 53.7788C1274.76 53.5102 1274.86 53.2031 1274.87 52.8867C1274.89 52.5703 1274.82 52.2552 1274.68 51.9714L1251.63 4.75075C1249.64 -1.31176 1243.19 -2.0846 1232.28 2.43223Z" fill="white"/>
<path d="M1117.59 2.07151L1144.41 53.8261C1144.53 54.066 1144.72 54.2673 1144.94 54.4082C1145.17 54.5491 1145.43 54.624 1145.7 54.6247H1171.9C1171.98 54.6254 1172.07 54.6033 1172.15 54.5607C1172.22 54.518 1172.29 54.4562 1172.34 54.3812C1172.38 54.3063 1172.41 54.2206 1172.41 54.1324C1172.42 54.0442 1172.4 53.9565 1172.36 53.8777L1147.09 2.12304C1137.92 -1.44921 1128.08 -1.46638 1117.59 2.07151Z" fill="white"/>
<path d="M998.289 3.3352C1000.59 4.79501 1002.08 6.22906 1002.77 7.63735C1007.87 18.0621 1013.86 30.127 1020.73 43.8321C1023.79 49.9633 1025.26 56.1203 1033.61 54.9868C1045.23 53.3896 1058.47 54.6519 1068.57 54.9095C1068.87 54.9196 1069.17 54.85 1069.44 54.7074C1069.71 54.5648 1069.94 54.3539 1070.11 54.0952C1070.27 53.8364 1070.37 53.5384 1070.39 53.2298C1070.41 52.9213 1070.35 52.6126 1070.22 52.3334L1045.43 1.45462C1030.65 -0.383026 1016.25 -0.88108 1002.23 -0.0395409C1000.15 0.0978532 998.839 1.22277 998.289 3.3352Z" fill="white"/>
<path d="M879.166 1.47945L905.623 52.1263C905.778 52.4201 905.855 52.749 905.846 53.081C905.837 53.4131 905.742 53.7372 905.571 54.0221C905.4 54.3069 905.159 54.5429 904.87 54.7072C904.581 54.8715 904.255 54.9586 903.923 54.9601H883.211C882.899 54.9618 882.593 55.043 882.322 55.196C882.051 55.3491 881.823 55.569 881.66 55.8347C881.498 56.1005 881.406 56.4034 881.393 56.7147C881.38 57.026 881.447 57.3354 881.588 57.6135L924.79 144.12C925.021 144.585 925.379 144.976 925.825 145.249C926.271 145.522 926.787 145.666 927.314 145.666H966.549C966.844 145.668 967.134 145.594 967.391 145.45C967.649 145.307 967.865 145.099 968.02 144.846C968.175 144.592 968.263 144.303 968.276 144.005C968.289 143.706 968.227 143.409 968.095 143.141L924.764 56.377C924.672 56.1925 924.628 55.9875 924.638 55.7815C924.647 55.5754 924.709 55.3752 924.817 55.1997C924.925 55.0243 925.077 54.8794 925.257 54.7788C925.437 54.6783 925.64 54.6254 925.846 54.6252H967.502C967.707 54.6255 967.909 54.5749 968.089 54.478C968.269 54.3811 968.422 54.2411 968.533 54.0712C968.643 53.9013 968.708 53.707 968.722 53.5065C968.735 53.306 968.697 53.1059 968.61 52.9249L944.987 1.76282C925.837 -0.401133 905.391 -0.967883 883.649 0.0625724C882.927 0.0969209 881.433 0.569213 879.166 1.47945Z" fill="white"/>
<path d="M761.981 1.58303L788.696 53.3119C788.78 53.4779 788.82 53.6629 788.812 53.8488C788.804 54.0348 788.748 54.2155 788.649 54.3736C788.551 54.5316 788.413 54.6615 788.25 54.7508C788.087 54.8401 787.903 54.8858 787.717 54.8833H765.021C764.413 54.8846 763.816 54.7135 763.301 54.3898C762.786 54.0661 762.373 53.603 762.11 53.0543L737.147 1.14508C707.899 -0.589516 677.63 -0.692562 646.338 0.835948L672.976 52.6163C673.108 52.876 673.172 53.1653 673.16 53.4565C673.149 53.7477 673.062 54.0311 672.91 54.2794C672.757 54.5278 672.543 54.7327 672.289 54.8745C672.034 55.0164 671.747 55.0904 671.456 55.0894H657.725C656.669 55.0906 655.632 54.7915 654.734 54.2265C653.837 53.6615 653.114 52.8534 652.65 51.895L628.949 3.05143C628.142 0.612682 624.398 -0.563755 617.717 -0.477883C591.819 -0.151572 565.911 -0.0141781 539.995 -0.0657009C538.295 -0.0657009 536.226 0.878884 533.787 2.76805C536.123 3.04284 537.831 4.23645 538.913 6.34889C549.699 27.7308 557.195 42.7583 561.403 51.4313C561.6 51.832 561.69 52.2762 561.665 52.722C561.641 53.1677 561.502 53.6004 561.262 53.9793C561.023 54.3581 560.69 54.6707 560.295 54.8874C559.901 55.1042 559.458 55.218 559.007 55.2182H545.302C544.12 55.2188 542.961 54.8883 541.959 54.2642C540.957 53.6402 540.151 52.7479 539.635 51.6889L516.372 4.54559C517.008 1.38552 514.303 -0.185921 508.257 -0.168747C483.767 -0.117224 459.276 -0.0571138 434.786 0.0115832C434.495 0.0115424 434.21 0.0374209 433.936 0.0888673L427.933 1.29965L454.699 52.4875C454.837 52.7415 454.905 53.0267 454.898 53.3154C454.89 53.604 454.807 53.8865 454.657 54.1353C454.507 54.3841 454.294 54.5908 454.04 54.7354C453.785 54.88 453.498 54.9576 453.205 54.9606H426.697C426.004 54.9618 425.324 54.7639 424.736 54.39C424.148 54.0161 423.675 53.4814 423.373 52.8482L398.9 1.19661L329.422 -0.0141781C328.826 -0.0314008 328.241 0.0558837 327.696 0.243436C325.686 0.896058 324.707 1.36835 324.759 1.66031L351.886 53.5953C351.961 53.7408 351.997 53.9034 351.992 54.0671C351.986 54.2309 351.938 54.3904 351.852 54.5303C351.767 54.6701 351.647 54.7855 351.504 54.8654C351.361 54.9453 351.199 54.987 351.036 54.9864H311.955C311.661 54.9878 311.372 55.0635 311.114 55.2062C310.857 55.3489 310.641 55.554 310.486 55.8019C310.331 56.0498 310.243 56.3322 310.229 56.6224C310.216 56.9125 310.278 57.2007 310.41 57.4595L353.354 143.425C353.503 143.728 353.572 144.063 353.555 144.399C353.539 144.736 353.437 145.062 353.259 145.348C353.081 145.634 352.833 145.871 352.539 146.034C352.245 146.198 351.913 146.284 351.576 146.285H328.314C327.036 146.284 325.783 145.93 324.696 145.261C323.609 144.593 322.73 143.636 322.157 142.498L279.831 57.7171C279.663 57.3907 279.582 57.0266 279.595 56.6598C279.609 56.2929 279.716 55.9357 279.908 55.6226C280.099 55.3094 280.368 55.0508 280.689 54.8717C281.009 54.6926 281.37 54.599 281.737 54.6H301.78C302.197 54.6008 302.608 54.4961 302.974 54.2955C303.34 54.0949 303.649 53.8049 303.872 53.4527C304.096 53.1004 304.227 52.6972 304.253 52.2808C304.279 51.8643 304.199 51.448 304.021 51.0707L280.578 1.60879C262.579 -1.19062 243.241 -1.16485 222.563 1.68607C225.328 4.74309 227.415 7.69706 228.824 10.548C234.783 22.57 241.739 36.3867 249.69 51.9981C249.853 52.3198 249.93 52.6778 249.916 53.038C249.901 53.3981 249.794 53.7485 249.606 54.0558C249.417 54.3631 249.153 54.617 248.839 54.7935C248.524 54.9699 248.17 55.0629 247.81 55.0637H207.776C207.534 55.0654 207.296 55.1284 207.084 55.2465C206.873 55.3645 206.695 55.5338 206.569 55.738C206.442 55.9423 206.37 56.1746 206.361 56.4129C206.351 56.6512 206.404 56.8874 206.514 57.0988L249.871 143.94C249.995 144.185 250.053 144.458 250.041 144.732C250.029 145.006 249.947 145.273 249.802 145.506C249.657 145.739 249.454 145.93 249.213 146.062C248.973 146.194 248.702 146.262 248.428 146.259H210.533C210.271 146.257 210.013 146.322 209.784 146.448C209.555 146.575 209.362 146.759 209.225 146.981C209.088 147.204 209.01 147.459 209 147.72C208.99 147.982 209.048 148.242 209.168 148.474L253.194 236.656C253.281 236.832 253.322 237.027 253.313 237.224C253.304 237.42 253.246 237.611 253.143 237.779C253.04 237.946 252.896 238.084 252.724 238.181C252.553 238.278 252.36 238.329 252.163 238.33H226.711C225.904 238.33 225.114 238.107 224.427 237.684C223.74 237.261 223.184 236.655 222.821 235.934L179.027 148.268C178.887 147.983 178.823 147.667 178.839 147.35C178.855 147.032 178.951 146.724 179.118 146.454C179.285 146.184 179.518 145.961 179.795 145.805C180.072 145.649 180.383 145.566 180.701 145.563H203.706C203.866 145.567 204.023 145.529 204.164 145.454C204.304 145.378 204.423 145.268 204.509 145.133C204.594 144.998 204.643 144.844 204.652 144.685C204.66 144.525 204.627 144.367 204.556 144.224L160.839 56.6866C160.734 56.479 160.683 56.2478 160.692 56.0151C160.701 55.7823 160.77 55.5558 160.891 55.357C161.012 55.1582 161.183 54.9938 161.385 54.8793C161.588 54.7648 161.817 54.7041 162.05 54.703H182.994C183.422 54.7027 183.843 54.5936 184.218 54.3858C184.592 54.1779 184.907 53.8783 185.134 53.5151C185.361 53.1518 185.491 52.7369 185.514 52.3093C185.536 51.8817 185.449 51.4554 185.261 51.0707L161.097 1.66031C148.645 -1.15627 135.559 -1.13909 121.836 1.71184C131.523 16.9626 140.573 33.8706 148.989 52.436C149.114 52.7113 149.168 53.0136 149.146 53.3153C149.124 53.6169 149.026 53.9081 148.862 54.1621C148.698 54.4161 148.472 54.6247 148.206 54.7688C147.941 54.9128 147.643 54.9876 147.34 54.9864H106.277C106.034 54.9882 105.796 55.0511 105.584 55.1692C105.373 55.2872 105.195 55.4565 105.069 55.6607C104.942 55.865 104.87 56.0974 104.861 56.3356C104.851 56.5739 104.904 56.8101 105.014 57.0215L148.448 144.018C148.568 144.251 148.625 144.51 148.615 144.772C148.605 145.033 148.528 145.288 148.39 145.511C148.253 145.734 148.061 145.917 147.831 146.044C147.602 146.17 147.344 146.236 147.083 146.233H105.787C105.645 146.233 105.505 146.265 105.378 146.327C105.25 146.389 105.138 146.479 105.051 146.591C104.964 146.703 104.904 146.834 104.875 146.973C104.846 147.112 104.85 147.255 104.885 147.393C106.251 152.364 111.068 159.603 114.314 166.301C124.516 187.254 136.04 210.285 148.886 235.393C149.05 235.708 149.13 236.059 149.118 236.413C149.107 236.767 149.004 237.113 148.82 237.416C148.637 237.719 148.378 237.969 148.069 238.143C147.76 238.317 147.411 238.408 147.057 238.407H108.595C107.682 238.407 106.786 238.152 106.008 237.669C105.23 237.187 104.601 236.497 104.19 235.677L60.4728 148.165C60.3411 147.907 60.279 147.618 60.2923 147.328C60.3056 147.038 60.394 146.756 60.5489 146.508C60.7038 146.26 60.9201 146.055 61.1774 145.912C61.4346 145.769 61.7243 145.694 62.0186 145.692H83.117C83.4346 145.69 83.7464 145.607 84.0233 145.451C84.3001 145.295 84.5331 145.072 84.7003 144.802C84.8675 144.532 84.9636 144.223 84.9796 143.906C84.9956 143.589 84.9308 143.273 84.7915 142.987L42.1823 57.6913C41.7722 56.8779 41.1456 56.1942 40.3723 55.7166C39.5991 55.239 38.7095 54.9862 37.8028 54.9864H4.39019C4.24555 54.9881 4.10379 55.0267 3.97823 55.0985C3.85267 55.1704 3.74753 55.273 3.67272 55.3968C3.59792 55.5207 3.55604 55.6615 3.55087 55.8061C3.54569 55.9506 3.5774 56.0941 3.64316 56.2229L47.6951 144.43C47.7872 144.614 47.8308 144.819 47.8215 145.025C47.8122 145.231 47.7505 145.432 47.6421 145.607C47.5337 145.783 47.3824 145.928 47.2023 146.028C47.0222 146.129 46.8194 146.182 46.6131 146.182H5.44649C5.14869 146.18 4.85578 146.255 4.59554 146.4C4.33529 146.545 4.11629 146.755 3.95905 147.01C3.80181 147.265 3.71164 147.557 3.69694 147.859C3.68224 148.16 3.74354 148.461 3.87509 148.732L47.4117 235.883C47.7063 236.486 48.1644 236.994 48.7338 237.349C49.3031 237.705 49.9608 237.893 50.6319 237.892H86.801C87.1789 237.892 87.55 237.997 87.873 238.197C88.1961 238.398 88.4581 238.684 88.63 239.026L132.424 326.692C132.795 327.422 133.36 328.034 134.056 328.462C134.752 328.889 135.551 329.115 136.366 329.113H156.022C157.006 329.113 157.971 329.388 158.812 329.906C159.653 330.424 160.337 331.166 160.788 332.05C177.086 364.149 191.126 392.332 202.907 416.599C204.367 419.622 207.167 421.082 211.306 420.978C221.267 420.738 228.583 420.678 233.254 420.798C233.674 420.805 234.083 420.929 234.438 421.156C234.793 421.384 235.079 421.706 235.264 422.086L261.334 475.773L334.342 476.005L308.529 423.709C308.143 422.921 307.543 422.257 306.796 421.793C306.049 421.328 305.186 421.082 304.304 421.082H280.836C280.11 421.08 279.399 420.877 278.784 420.494C278.17 420.112 277.676 419.566 277.358 418.918L233.898 331.921C233.595 331.324 233.136 330.823 232.572 330.472C232.008 330.122 231.361 329.937 230.704 329.938H209.322C208.91 329.937 208.507 329.823 208.157 329.609C207.807 329.396 207.524 329.09 207.338 328.727L162.823 239.618C162.739 239.452 162.699 239.267 162.707 239.081C162.715 238.895 162.771 238.715 162.869 238.557C162.968 238.399 163.105 238.269 163.269 238.179C163.432 238.09 163.616 238.044 163.802 238.047H188.12C189.35 238.046 190.556 238.388 191.603 239.034C192.649 239.68 193.495 240.605 194.046 241.705L236.475 326.666C236.853 327.425 237.437 328.063 238.16 328.509C238.884 328.955 239.719 329.191 240.571 329.191H259.634C260.703 329.192 261.749 329.489 262.655 330.049C263.561 330.609 264.29 331.409 264.761 332.359L308.555 420.025C308.665 420.243 308.831 420.425 309.036 420.552C309.24 420.68 309.475 420.747 309.714 420.747H337.459C337.736 420.748 338.006 420.826 338.238 420.971C338.471 421.117 338.656 421.325 338.773 421.571L365.41 475.85L450.784 475.773L424.481 423.297C424.345 423.023 424.28 422.718 424.293 422.413C424.305 422.107 424.394 421.81 424.551 421.549C424.708 421.289 424.929 421.074 425.191 420.925C425.454 420.775 425.75 420.696 426.053 420.695H443.854C444.372 420.696 444.879 420.841 445.316 421.114C445.754 421.388 446.104 421.778 446.327 422.241L472.217 475.618L563.722 475.953L537.445 423.065C537.322 422.827 537.264 422.561 537.275 422.293C537.286 422.025 537.366 421.764 537.508 421.534C537.65 421.304 537.849 421.114 538.086 420.981C538.323 420.847 538.59 420.776 538.862 420.772H554.19C554.916 420.772 555.628 420.977 556.247 421.364C556.866 421.75 557.367 422.304 557.693 422.962L583.146 475.49C615.553 476.245 644.69 476.529 670.554 476.34C671.086 476.34 671.61 476.048 672.125 475.464L645.823 421.648C645.783 421.569 645.765 421.482 645.769 421.394C645.772 421.305 645.799 421.22 645.845 421.145C645.892 421.07 645.957 421.008 646.034 420.965C646.112 420.923 646.199 420.901 646.287 420.901H671.018C671.089 420.902 671.159 420.922 671.218 420.958C671.277 420.995 671.324 421.046 671.353 421.107L698.634 475.928L778.108 475.773L751.368 422.601C751.137 422.137 750.778 421.746 750.332 421.473C749.886 421.2 749.37 421.055 748.843 421.056H722.592C722.104 421.056 721.626 420.921 721.211 420.666C720.797 420.411 720.464 420.046 720.248 419.613L676.866 332.746C676.439 331.887 675.781 331.165 674.967 330.66C674.152 330.155 673.213 329.887 672.254 329.886H652.315C651.57 329.886 650.839 329.679 650.203 329.288C649.567 328.897 649.049 328.337 648.708 327.671L605.197 240.494C605.066 240.231 605.003 239.938 605.016 239.644C605.03 239.35 605.118 239.064 605.273 238.813C605.428 238.563 605.644 238.356 605.901 238.213C606.159 238.07 606.449 237.995 606.743 237.995H642.757C643.354 237.996 643.937 238.161 644.442 238.47C644.947 238.779 645.354 239.221 645.617 239.747L688.793 326.202C689.235 327.093 689.915 327.842 690.757 328.365C691.599 328.889 692.57 329.166 693.559 329.165H713.498C713.956 329.164 714.405 329.292 714.796 329.533C715.187 329.774 715.505 330.119 715.714 330.53L759.792 418.789C760.061 419.338 760.479 419.8 760.998 420.123C761.517 420.447 762.117 420.618 762.728 420.618H787.717C788.266 420.619 788.802 420.772 789.263 421.059C789.723 421.347 790.089 421.756 790.319 422.241L815.9 475.515C817.583 476.151 818.725 476.469 819.326 476.469C830.232 476.52 850.386 476.34 879.788 475.928L853.073 421.983C852.934 421.704 852.718 421.469 852.449 421.305C852.18 421.141 851.87 421.055 851.554 421.056H825.663C824.867 421.056 824.088 420.834 823.414 420.415C822.74 419.996 822.198 419.397 821.851 418.686L779.55 334.034C778.925 332.765 777.954 331.697 776.747 330.95C775.541 330.204 774.147 329.808 772.724 329.809H754.098C753.394 329.809 752.704 329.614 752.103 329.246C751.503 328.878 751.016 328.35 750.698 327.722L706.981 240.185C706.701 239.636 706.276 239.174 705.754 238.851C705.231 238.529 704.63 238.357 704.018 238.356H669.395C668.334 238.356 667.294 238.059 666.393 237.499C665.491 236.939 664.765 236.138 664.294 235.187L620.938 148.371C620.793 148.086 620.725 147.768 620.74 147.448C620.755 147.128 620.852 146.817 621.022 146.544C621.192 146.27 621.43 146.044 621.713 145.886C621.995 145.728 622.314 145.644 622.638 145.641H657.699C658.475 145.64 659.237 145.856 659.9 146.265C660.564 146.674 661.104 147.261 661.46 147.959L705.641 236.45C705.857 236.884 706.188 237.249 706.598 237.503C707.008 237.758 707.479 237.893 707.96 237.892H760.152C761.253 237.894 762.331 238.2 763.268 238.778C764.205 239.355 764.963 240.181 765.459 241.164L808.687 327.722C808.896 328.134 809.214 328.479 809.605 328.72C809.996 328.961 810.445 329.088 810.902 329.088H831.537C832.317 329.086 833.083 329.303 833.747 329.712C834.411 330.122 834.949 330.708 835.298 331.406L879.118 419.149C879.343 419.598 879.691 419.976 880.124 420.239C880.556 420.503 881.055 420.643 881.566 420.644H905.266C906.246 420.644 907.208 420.921 908.041 421.445C908.875 421.969 909.547 422.718 909.98 423.606L935.33 475.773H980.824L954.084 422.653C953.846 422.181 953.479 421.785 953.024 421.508C952.569 421.23 952.045 421.083 951.508 421.082H927.112C926.175 421.081 925.257 420.818 924.461 420.322C923.664 419.826 923.021 419.116 922.603 418.274L880.123 333.261C879.603 332.209 878.8 331.322 877.803 330.703C876.805 330.084 875.655 329.756 874.481 329.757H854.001C853.59 329.757 853.187 329.64 852.837 329.422C852.487 329.204 852.203 328.892 852.017 328.521L808.274 240.932C807.896 240.174 807.312 239.535 806.589 239.09C805.865 238.644 805.03 238.407 804.178 238.407H769.607C769.074 238.408 768.553 238.258 768.102 237.975C767.651 237.693 767.288 237.289 767.056 236.81L722.644 147.959C722.522 147.709 722.465 147.432 722.479 147.154C722.494 146.876 722.578 146.606 722.725 146.37C722.871 146.133 723.075 145.937 723.318 145.801C723.56 145.664 723.834 145.592 724.112 145.589H764.171C764.404 145.588 764.633 145.527 764.835 145.413C765.038 145.298 765.208 145.134 765.33 144.935C765.451 144.736 765.52 144.51 765.529 144.277C765.538 144.044 765.487 143.813 765.382 143.606L722.515 57.7686C722.347 57.4385 722.267 57.071 722.282 56.7012C722.298 56.3314 722.407 55.9717 722.601 55.6564C722.795 55.3411 723.066 55.0808 723.39 54.9004C723.713 54.7199 724.077 54.6253 724.447 54.6257H758.478C759.189 54.6257 759.887 54.826 760.493 55.2038C761.098 55.5817 761.587 56.1221 761.904 56.7639L805.569 144.198C805.679 144.418 805.731 144.662 805.72 144.907C805.709 145.153 805.635 145.391 805.506 145.6C805.377 145.809 805.197 145.981 804.983 146.101C804.768 146.221 804.527 146.284 804.281 146.285H782.178C781.929 146.286 781.685 146.35 781.468 146.471C781.251 146.592 781.068 146.767 780.937 146.978C780.806 147.189 780.73 147.43 780.717 147.678C780.705 147.926 780.755 148.174 780.864 148.397L824.427 235.6C824.76 236.264 825.269 236.824 825.897 237.215C826.525 237.606 827.247 237.814 827.982 237.815H866.341C866.563 237.815 866.781 237.759 866.975 237.651C867.17 237.544 867.334 237.389 867.452 237.202C867.57 237.014 867.639 236.799 867.652 236.577C867.665 236.356 867.621 236.135 867.526 235.934L823.68 148.14C823.548 147.872 823.485 147.574 823.498 147.276C823.511 146.978 823.599 146.688 823.754 146.435C823.909 146.182 824.126 145.974 824.383 145.831C824.641 145.687 824.931 145.613 825.225 145.615H866.289C866.508 145.615 866.723 145.56 866.915 145.454C867.107 145.348 867.268 145.195 867.384 145.01C867.5 144.824 867.567 144.612 867.578 144.393C867.589 144.175 867.545 143.957 867.448 143.76L824.35 57.4595C824.2 57.1646 824.128 56.8362 824.141 56.5057C824.154 56.1752 824.252 55.8536 824.426 55.5718C824.599 55.29 824.842 55.0574 825.13 54.8963C825.419 54.7351 825.745 54.6508 826.076 54.6515H865.954C866.173 54.6519 866.388 54.5966 866.58 54.4907C866.772 54.3847 866.933 54.2317 867.049 54.0461C867.165 53.8605 867.232 53.6483 867.243 53.4297C867.254 53.2111 867.21 52.9932 867.113 52.7967C860.415 39.3321 854.113 26.8378 848.205 15.3138C845.903 10.797 844.383 6.24584 843.645 1.66031C814.26 -0.469296 788.335 -1.05322 765.871 -0.0914626C763.965 -0.00559125 762.668 0.552573 761.981 1.58303ZM662.929 146.259C662.575 146.258 662.229 146.159 661.929 145.972C661.629 145.785 661.386 145.519 661.228 145.203L617.279 57.2534C617.134 56.9613 617.066 56.6366 617.082 56.3106C617.097 55.9846 617.197 55.6681 617.37 55.3915C617.543 55.1148 617.785 54.8873 618.071 54.7306C618.357 54.574 618.679 54.4935 619.005 54.4969H641.65C642.003 54.498 642.349 54.5974 642.65 54.7839C642.95 54.9705 643.192 55.2368 643.35 55.5531L687.299 143.503C687.445 143.795 687.513 144.119 687.497 144.445C687.481 144.771 687.382 145.088 687.208 145.364C687.035 145.641 686.794 145.869 686.507 146.025C686.221 146.182 685.899 146.262 685.573 146.259H662.929ZM554.267 146.388C553.926 146.391 553.591 146.298 553.299 146.121C553.008 145.943 552.772 145.688 552.618 145.383L508.592 57.2276C508.451 56.9476 508.384 56.6358 508.398 56.3224C508.411 56.009 508.506 55.7044 508.671 55.4379C508.837 55.1714 509.068 54.952 509.343 54.8007C509.618 54.6495 509.927 54.5715 510.241 54.5742H526.548C526.889 54.5712 527.224 54.6637 527.516 54.8413C527.807 55.0188 528.043 55.2743 528.197 55.5789L572.223 143.734C572.364 144.014 572.431 144.326 572.417 144.64C572.403 144.953 572.309 145.258 572.144 145.524C571.978 145.791 571.747 146.01 571.472 146.161C571.197 146.313 570.888 146.391 570.574 146.388H554.267ZM414.95 54.5484C415.356 54.5486 415.755 54.662 416.1 54.8758C416.446 55.0897 416.726 55.3955 416.907 55.7592L460.65 143.296C460.817 143.63 460.896 144.001 460.879 144.374C460.862 144.747 460.75 145.109 460.554 145.426C460.358 145.744 460.084 146.006 459.758 146.188C459.432 146.369 459.066 146.465 458.692 146.465H441.767C441.361 146.465 440.962 146.352 440.616 146.138C440.27 145.924 439.991 145.618 439.809 145.254L396.066 57.7171C395.9 57.3833 395.821 57.0124 395.838 56.6397C395.854 56.2669 395.966 55.9046 396.162 55.5872C396.358 55.2697 396.633 55.0077 396.958 54.8259C397.284 54.6441 397.651 54.5486 398.024 54.5484H414.95ZM541.18 145.847C541.511 145.845 541.836 145.936 542.118 146.109C542.401 146.282 542.629 146.53 542.778 146.826L587.216 235.806C587.353 236.077 587.417 236.379 587.404 236.683C587.39 236.987 587.299 237.282 587.139 237.541C586.978 237.799 586.755 238.012 586.488 238.16C586.222 238.307 585.923 238.383 585.619 238.382H562.305C561.974 238.383 561.649 238.293 561.367 238.12C561.084 237.947 560.856 237.698 560.707 237.403L516.269 148.423C516.132 148.151 516.068 147.849 516.081 147.545C516.095 147.241 516.186 146.946 516.346 146.688C516.507 146.429 516.731 146.216 516.997 146.069C517.263 145.922 517.562 145.845 517.866 145.847H541.18ZM454.158 238.459C453.731 238.461 453.312 238.344 452.948 238.121C452.584 237.898 452.289 237.578 452.097 237.197L408.071 149.015C407.895 148.665 407.811 148.275 407.829 147.883C407.846 147.491 407.964 147.11 408.171 146.777C408.378 146.443 408.667 146.168 409.01 145.978C409.353 145.789 409.74 145.69 410.132 145.692H425.615C426.042 145.69 426.461 145.807 426.825 146.03C427.189 146.253 427.484 146.573 427.676 146.955L471.702 235.136C471.878 235.486 471.962 235.876 471.944 236.268C471.927 236.66 471.809 237.041 471.602 237.375C471.395 237.708 471.106 237.983 470.763 238.173C470.42 238.363 470.033 238.461 469.641 238.459H454.158ZM341.246 238.433C340.915 238.435 340.59 238.344 340.308 238.171C340.026 237.998 339.798 237.75 339.649 237.454L295.108 148.268C294.971 147.997 294.906 147.694 294.92 147.391C294.933 147.087 295.025 146.792 295.185 146.533C295.345 146.275 295.569 146.062 295.835 145.914C296.101 145.767 296.401 145.691 296.705 145.692H314.274C314.605 145.691 314.93 145.781 315.212 145.954C315.494 146.127 315.723 146.375 315.871 146.671L360.413 235.857C360.549 236.129 360.614 236.431 360.6 236.735C360.587 237.039 360.496 237.334 360.335 237.592C360.175 237.851 359.951 238.064 359.685 238.211C359.419 238.358 359.12 238.435 358.815 238.433H341.246ZM546.41 329.757C546.04 329.757 545.677 329.653 545.363 329.457C545.049 329.262 544.796 328.982 544.632 328.65L500.683 240.674C500.535 240.372 500.465 240.037 500.482 239.701C500.499 239.364 500.601 239.037 500.779 238.751C500.956 238.465 501.204 238.229 501.499 238.065C501.793 237.902 502.124 237.815 502.461 237.815H525.208C525.578 237.815 525.941 237.919 526.255 238.115C526.569 238.311 526.822 238.591 526.986 238.923L571.476 327.928C571.639 328.26 571.892 328.54 572.206 328.736C572.52 328.932 572.883 329.036 573.253 329.036H595.923C596.293 329.037 596.656 329.14 596.97 329.336C597.284 329.532 597.537 329.812 597.701 330.144L641.65 418.093C641.799 418.395 641.868 418.731 641.851 419.067C641.835 419.404 641.732 419.73 641.555 420.016C641.377 420.302 641.129 420.539 640.835 420.702C640.54 420.866 640.209 420.952 639.872 420.953H617.099C616.729 420.952 616.366 420.848 616.052 420.653C615.738 420.457 615.485 420.177 615.322 419.845L570.857 330.865C570.694 330.533 570.441 330.253 570.127 330.058C569.813 329.862 569.45 329.758 569.08 329.757H546.41ZM437.954 329.912C437.575 329.91 437.203 329.803 436.88 329.603C436.558 329.403 436.296 329.118 436.125 328.778L392.254 240.958C392.096 240.645 392.021 240.296 392.035 239.945C392.049 239.595 392.153 239.254 392.336 238.955C392.52 238.655 392.776 238.408 393.082 238.235C393.387 238.063 393.732 237.971 394.083 237.97H410.029C410.409 237.972 410.781 238.079 411.103 238.279C411.426 238.479 411.687 238.764 411.858 239.103L455.73 326.924C455.888 327.237 455.963 327.585 455.949 327.936C455.934 328.287 455.83 328.628 455.647 328.927C455.464 329.226 455.207 329.474 454.902 329.646C454.596 329.819 454.252 329.91 453.901 329.912H437.954ZM325.171 329.835C324.84 329.836 324.515 329.746 324.233 329.573C323.951 329.4 323.723 329.151 323.574 328.856L279.419 240.417C279.282 240.145 279.218 239.843 279.231 239.539C279.245 239.235 279.336 238.94 279.496 238.682C279.656 238.423 279.88 238.21 280.146 238.063C280.413 237.916 280.712 237.839 281.016 237.841H298.482C298.813 237.839 299.138 237.93 299.42 238.103C299.702 238.276 299.931 238.524 300.079 238.82L344.26 327.259C344.397 327.53 344.462 327.832 344.448 328.136C344.434 328.44 344.343 328.735 344.183 328.994C344.023 329.252 343.799 329.465 343.533 329.613C343.267 329.76 342.967 329.836 342.663 329.835H325.171ZM508.438 421.004C508.121 421.003 507.81 420.913 507.542 420.744C507.273 420.576 507.057 420.336 506.918 420.051L462.814 331.767C462.688 331.508 462.629 331.222 462.643 330.934C462.658 330.646 462.745 330.367 462.897 330.123C463.049 329.878 463.261 329.676 463.512 329.536C463.763 329.395 464.046 329.321 464.334 329.319H480.847C481.164 329.321 481.474 329.411 481.743 329.579C482.012 329.748 482.228 329.988 482.367 330.273L526.471 418.557C526.597 418.816 526.656 419.102 526.641 419.39C526.627 419.677 526.54 419.956 526.388 420.201C526.236 420.446 526.024 420.648 525.773 420.788C525.522 420.929 525.239 421.003 524.951 421.004H508.438ZM369.352 329.139C369.705 329.14 370.052 329.24 370.352 329.426C370.652 329.613 370.894 329.879 371.052 330.195L415.078 418.325C415.224 418.617 415.292 418.942 415.276 419.268C415.26 419.594 415.161 419.91 414.988 420.187C414.815 420.464 414.573 420.691 414.287 420.848C414 421.004 413.679 421.085 413.352 421.082H395.86C395.507 421.08 395.161 420.981 394.86 420.795C394.56 420.608 394.318 420.342 394.16 420.025L350.134 331.896C349.988 331.603 349.92 331.279 349.936 330.953C349.952 330.627 350.051 330.31 350.224 330.034C350.398 329.757 350.639 329.53 350.925 329.373C351.212 329.216 351.534 329.136 351.86 329.139H369.352Z" fill="white"/>
<path d="M18.8912 2.89748C21.725 4.2199 24.1638 6.93343 26.2075 11.0381C32.6135 23.9531 39.2427 37.4693 46.0952 51.5865C46.544 52.5062 47.2408 53.2812 48.1063 53.8233C48.9717 54.3653 49.971 54.6525 50.99 54.6521H65.8543C66.1995 54.6551 66.5398 54.5703 66.8432 54.4056C67.1466 54.2409 67.403 54.0018 67.5885 53.7106C67.774 53.4195 67.8823 53.086 67.9034 52.7415C67.9245 52.3969 67.8577 52.0527 67.7091 51.7411L44.395 3.33543C37.8001 -1.7825 29.2988 -1.92849 18.8912 2.89748Z" fill="white"/>
<path d="M1345.99 54.5986H1341.48C1340.9 54.599 1340.33 54.7474 1339.83 55.0297C1339.32 55.312 1338.9 55.719 1338.59 56.2119C1338.29 56.7048 1338.11 57.2673 1338.09 57.8461C1338.06 58.4249 1338.18 59.0008 1338.44 59.5191L1380.67 143.991C1380.95 144.555 1381.38 145.03 1381.92 145.363C1382.46 145.695 1383.07 145.871 1383.71 145.871H1388.19C1388.77 145.871 1389.34 145.722 1389.84 145.44C1390.35 145.158 1390.77 144.751 1391.08 144.258C1391.38 143.765 1391.56 143.203 1391.58 142.624C1391.61 142.045 1391.49 141.469 1391.23 140.951L1349.03 56.4792C1348.75 55.9145 1348.32 55.4394 1347.78 55.1073C1347.24 54.7751 1346.62 54.599 1345.99 54.5986Z" fill="white"/>
<path d="M1274.68 145.923H1277.77C1278.25 145.925 1278.71 145.806 1279.12 145.577C1279.53 145.349 1279.88 145.019 1280.13 144.618C1280.38 144.218 1280.52 143.76 1280.54 143.29C1280.56 142.819 1280.46 142.351 1280.25 141.93L1237.36 56.0675C1237.13 55.6092 1236.77 55.2242 1236.34 54.9557C1235.9 54.6872 1235.4 54.5458 1234.88 54.5476H1231.79C1231.32 54.546 1230.86 54.6651 1230.44 54.8936C1230.03 55.122 1229.69 55.4522 1229.44 55.8527C1229.19 56.2531 1229.05 56.7104 1229.03 57.181C1229.01 57.6516 1229.11 58.1197 1229.32 58.5406L1272.21 144.403C1272.44 144.862 1272.79 145.247 1273.23 145.515C1273.67 145.784 1274.17 145.925 1274.68 145.923Z" fill="white"/>
<path d="M1024.82 54.9873H1000.81C1000.6 54.9869 1000.38 55.0422 1000.19 55.1481C999.997 55.2541 999.836 55.4071 999.72 55.5927C999.604 55.7783 999.537 55.9905 999.526 56.2091C999.514 56.4277 999.559 56.6456 999.655 56.8421L1043.66 144.946C1043.76 145.163 1043.93 145.345 1044.13 145.473C1044.34 145.601 1044.57 145.668 1044.81 145.667H1068.82C1069.04 145.668 1069.26 145.612 1069.45 145.507C1069.64 145.401 1069.8 145.248 1069.92 145.062C1070.04 144.876 1070.1 144.664 1070.11 144.446C1070.12 144.227 1070.08 144.009 1069.98 143.813L1025.98 55.7086C1025.88 55.4918 1025.71 55.3093 1025.51 55.1817C1025.3 55.0542 1025.07 54.9868 1024.82 54.9873Z" fill="white"/>
<path d="M1161.02 145.743H1172.46C1172.71 145.742 1172.95 145.678 1173.17 145.556C1173.39 145.435 1173.57 145.261 1173.7 145.05C1173.83 144.839 1173.91 144.598 1173.92 144.349C1173.93 144.101 1173.88 143.854 1173.78 143.63L1129.93 55.8869C1129.81 55.6405 1129.62 55.4328 1129.39 55.2871C1129.16 55.1414 1128.89 55.0636 1128.62 55.0625H1117.2C1116.95 55.0635 1116.71 55.1276 1116.49 55.2488C1116.28 55.3699 1116.09 55.5443 1115.96 55.7554C1115.83 55.9665 1115.76 56.2075 1115.74 56.4558C1115.73 56.7041 1115.78 56.9515 1115.89 57.1749L1159.71 144.918C1159.83 145.165 1160.02 145.372 1160.25 145.518C1160.48 145.664 1160.75 145.742 1161.02 145.743Z" fill="white"/>
<path d="M1362.4 146.208H1341.69C1341.45 146.209 1341.22 146.271 1341.01 146.387C1340.81 146.503 1340.64 146.669 1340.51 146.87C1340.39 147.071 1340.32 147.3 1340.31 147.536C1340.3 147.771 1340.35 148.006 1340.45 148.217L1384.84 237.12C1384.95 237.35 1385.13 237.545 1385.35 237.681C1385.56 237.818 1385.82 237.891 1386.07 237.893H1406.81C1407.05 237.891 1407.28 237.829 1407.49 237.714C1407.69 237.598 1407.86 237.432 1407.99 237.231C1408.11 237.03 1408.18 236.8 1408.19 236.565C1408.2 236.329 1408.15 236.095 1408.05 235.883L1363.64 146.981C1363.52 146.75 1363.35 146.556 1363.13 146.419C1362.91 146.283 1362.66 146.21 1362.4 146.208Z" fill="white"/>
<path d="M1246.68 146.208H1237.56C1237.28 146.208 1237 146.281 1236.76 146.418C1236.51 146.556 1236.3 146.755 1236.16 146.995C1236.01 147.235 1235.93 147.509 1235.92 147.791C1235.9 148.073 1235.97 148.353 1236.09 148.604L1280.22 236.991C1280.36 237.266 1280.58 237.496 1280.84 237.656C1281.1 237.815 1281.41 237.897 1281.72 237.893H1290.84C1291.12 237.897 1291.4 237.828 1291.65 237.692C1291.9 237.556 1292.11 237.358 1292.26 237.117C1292.41 236.876 1292.5 236.6 1292.51 236.316C1292.52 236.032 1292.46 235.75 1292.33 235.497L1248.18 147.11C1248.04 146.835 1247.82 146.604 1247.56 146.445C1247.29 146.285 1246.99 146.203 1246.68 146.208Z" fill="white"/>
<path d="M1134.26 146.259H1130.91C1130.46 146.259 1130.02 146.374 1129.63 146.593C1129.24 146.812 1128.91 147.128 1128.67 147.51C1128.44 147.892 1128.3 148.329 1128.29 148.777C1128.27 149.225 1128.36 149.671 1128.57 150.071L1171.79 236.63C1172.01 237.063 1172.35 237.428 1172.76 237.683C1173.18 237.937 1173.65 238.072 1174.14 238.072H1177.49C1177.94 238.072 1178.38 237.957 1178.77 237.738C1179.16 237.519 1179.49 237.203 1179.72 236.821C1179.96 236.439 1180.09 236.003 1180.11 235.554C1180.13 235.106 1180.03 234.66 1179.83 234.26L1136.6 147.701C1136.38 147.268 1136.05 146.903 1135.64 146.649C1135.22 146.394 1134.74 146.259 1134.26 146.259Z" fill="white"/>
<path d="M1061.02 237.943H1071.61C1071.88 237.941 1072.14 237.87 1072.38 237.737C1072.62 237.603 1072.82 237.411 1072.96 237.178C1073.1 236.946 1073.18 236.681 1073.19 236.409C1073.2 236.137 1073.15 235.867 1073.02 235.624L1028.74 146.979C1028.61 146.717 1028.4 146.496 1028.15 146.342C1027.9 146.187 1027.62 146.105 1027.32 146.103H1016.76C1016.49 146.105 1016.22 146.176 1015.98 146.309C1015.75 146.443 1015.55 146.635 1015.4 146.868C1015.26 147.1 1015.18 147.365 1015.17 147.637C1015.16 147.909 1015.22 148.179 1015.34 148.422L1059.6 237.067C1059.73 237.329 1059.94 237.549 1060.19 237.704C1060.44 237.859 1060.72 237.941 1061.02 237.943Z" fill="white"/>
<path d="M945.066 237.79H967.169C967.474 237.786 967.774 237.706 968.039 237.555C968.304 237.405 968.527 237.19 968.687 236.93C968.846 236.67 968.937 236.374 968.951 236.069C968.965 235.764 968.902 235.461 968.767 235.188L924.818 147.212C924.67 146.914 924.443 146.662 924.161 146.485C923.879 146.307 923.554 146.211 923.22 146.208H901.117C900.812 146.211 900.513 146.292 900.248 146.442C899.982 146.592 899.76 146.808 899.6 147.068C899.44 147.327 899.349 147.624 899.335 147.928C899.321 148.233 899.385 148.536 899.52 148.81L943.469 236.785C943.616 237.083 943.844 237.335 944.126 237.513C944.408 237.69 944.733 237.786 945.066 237.79Z" fill="white"/>
<path d="M1575.52 434.476L1577.35 426.361V413.249L1537.6 332.77C1537.15 331.857 1536.45 331.089 1535.58 330.552C1534.72 330.015 1533.72 329.731 1532.71 329.73H1514.11C1513.26 329.73 1512.42 329.494 1511.7 329.048C1510.98 328.602 1510.39 327.964 1510.01 327.206L1465.99 239.05C1465.88 238.827 1465.71 238.639 1465.5 238.507C1465.28 238.375 1465.03 238.304 1464.78 238.303H1426.96C1426.81 238.305 1426.67 238.345 1426.54 238.418C1426.41 238.491 1426.3 238.595 1426.22 238.721C1426.15 238.847 1426.1 238.991 1426.1 239.138C1426.09 239.286 1426.12 239.433 1426.19 239.565L1469.9 327.103C1470.21 327.728 1470.69 328.255 1471.28 328.624C1471.87 328.993 1472.55 329.189 1473.25 329.189H1493.22C1494.25 329.189 1495.26 329.476 1496.14 330.017C1497.02 330.558 1497.73 331.333 1498.19 332.255L1541.13 418.221C1541.53 419.025 1542.15 419.702 1542.91 420.176C1543.67 420.649 1544.54 420.9 1545.44 420.9H1568.54C1569.76 420.901 1570.94 421.326 1571.88 422.101C1572.82 422.877 1573.46 423.954 1573.7 425.15L1575.52 434.476Z" fill="white"/>
<path d="M1370.57 329.397H1389.19C1389.58 329.399 1389.97 329.3 1390.31 329.11C1390.66 328.921 1390.95 328.646 1391.15 328.312C1391.36 327.979 1391.48 327.598 1391.5 327.206C1391.51 326.814 1391.43 326.424 1391.25 326.073L1348.03 239.541C1347.83 239.159 1347.54 238.839 1347.18 238.616C1346.81 238.393 1346.39 238.276 1345.96 238.279H1327.34C1326.95 238.276 1326.56 238.375 1326.22 238.565C1325.87 238.755 1325.58 239.03 1325.38 239.363C1325.17 239.696 1325.05 240.077 1325.04 240.469C1325.02 240.861 1325.1 241.251 1325.28 241.602L1368.51 328.134C1368.7 328.516 1368.99 328.836 1369.36 329.059C1369.72 329.282 1370.14 329.399 1370.57 329.397Z" fill="white"/>
<path d="M1265.64 329.321H1274.68C1274.96 329.319 1275.22 329.249 1275.46 329.115C1275.7 328.981 1275.9 328.789 1276.04 328.557C1276.18 328.324 1276.26 328.06 1276.27 327.788C1276.28 327.516 1276.22 327.245 1276.1 327.002L1232.31 239.336C1232.17 239.074 1231.97 238.854 1231.72 238.699C1231.47 238.545 1231.18 238.462 1230.89 238.46H1221.85C1221.58 238.462 1221.31 238.533 1221.07 238.667C1220.83 238.8 1220.64 238.992 1220.49 239.225C1220.35 239.457 1220.27 239.722 1220.26 239.994C1220.25 240.266 1220.31 240.536 1220.43 240.779L1264.23 328.445C1264.36 328.707 1264.56 328.928 1264.81 329.082C1265.06 329.237 1265.35 329.319 1265.64 329.321Z" fill="white"/>
<path d="M1157.75 329.347H1162C1162.37 329.347 1162.74 329.253 1163.06 329.072C1163.38 328.892 1163.66 328.632 1163.85 328.316C1164.04 328.001 1164.15 327.641 1164.17 327.272C1164.18 326.902 1164.1 326.534 1163.94 326.204L1120.63 239.517C1120.45 239.16 1120.17 238.861 1119.83 238.651C1119.49 238.442 1119.1 238.332 1118.7 238.332H1114.47C1114.1 238.332 1113.74 238.426 1113.42 238.607C1113.09 238.787 1112.82 239.047 1112.63 239.363C1112.43 239.678 1112.32 240.038 1112.31 240.408C1112.29 240.777 1112.37 241.145 1112.54 241.475L1155.82 328.162C1156 328.519 1156.28 328.819 1156.62 329.028C1156.96 329.237 1157.35 329.347 1157.75 329.347Z" fill="white"/>
<path d="M907.349 238.279H885.349C885.034 238.281 884.725 238.363 884.451 238.517C884.177 238.672 883.947 238.893 883.782 239.161C883.617 239.429 883.523 239.735 883.509 240.049C883.494 240.363 883.56 240.676 883.7 240.958L927.263 328.186C927.417 328.497 927.656 328.759 927.952 328.941C928.248 329.123 928.589 329.219 928.937 329.216H950.937C951.252 329.214 951.561 329.132 951.835 328.978C952.109 328.823 952.339 328.602 952.504 328.334C952.669 328.066 952.763 327.76 952.777 327.446C952.792 327.132 952.726 326.819 952.586 326.537L909.024 239.309C908.869 238.998 908.63 238.736 908.334 238.554C908.038 238.372 907.697 238.276 907.349 238.279Z" fill="white"/>
<path d="M159.856 475.773L215.913 475.644L189.946 423.735C189.549 422.952 188.942 422.294 188.192 421.834C187.441 421.375 186.577 421.132 185.695 421.133H163.051C162.083 421.132 161.136 420.861 160.316 420.351C159.497 419.841 158.838 419.113 158.414 418.248L115.495 332.334C115.093 331.529 114.476 330.853 113.712 330.38C112.947 329.906 112.066 329.655 111.167 329.654H91.6144C90.9324 329.655 90.263 329.465 89.6808 329.105C89.0987 328.746 88.6265 328.232 88.3168 327.619L45.656 242.194C45.0675 241.018 44.1628 240.028 43.0435 239.336C41.9242 238.645 40.6344 238.279 39.3186 238.279H-11.0191C-11.2542 238.275 -11.4862 238.333 -11.6925 238.445C-11.8989 238.558 -12.0726 238.722 -12.1969 238.922C-12.3213 239.121 -12.3922 239.349 -12.4024 239.584C-12.4127 239.819 -12.3621 240.053 -12.2556 240.262L31.2039 327.233C31.4911 327.806 31.9325 328.289 32.4786 328.625C33.0246 328.962 33.6537 329.14 34.2953 329.139H53.7967C55.0497 329.138 56.2781 329.487 57.3433 330.147C58.4084 330.808 59.2678 331.752 59.8247 332.875L102.975 419.278C103.191 419.712 103.525 420.076 103.939 420.331C104.353 420.586 104.831 420.721 105.319 420.721H131.905C132.345 420.72 132.776 420.842 133.15 421.074C133.524 421.307 133.824 421.64 134.018 422.035L159.856 475.773Z" fill="white"/>
<path d="M59.3366 475.721C71.8395 476.975 84.4197 476.889 97.0771 475.464L70.6459 423.812C70.2358 422.999 69.6069 422.316 68.8292 421.838C68.0515 421.361 67.1554 421.108 66.2407 421.107H43.6223C42.739 421.106 41.8752 420.862 41.1287 420.403C40.3821 419.943 39.7824 419.286 39.3974 418.505L-3.6242 332.359C-4.04086 331.524 -4.68328 330.821 -5.47958 330.329C-6.27588 329.838 -7.19457 329.577 -8.13245 329.577H-27.8656C-28.4309 329.577 -28.9851 329.42 -29.467 329.125C-29.949 328.829 -30.3398 328.406 -30.5963 327.902L-74.8287 239.335C-74.9683 239.055 -75.1845 238.82 -75.4531 238.656C-75.7217 238.492 -76.0318 238.406 -76.3486 238.407H-111.049C-111.356 238.406 -111.659 238.484 -111.928 238.632C-112.196 238.781 -112.423 238.996 -112.585 239.256C-112.748 239.517 -112.841 239.815 -112.856 240.121C-112.872 240.428 -112.808 240.734 -112.672 241.009L-69.5991 327.258C-69.3136 327.824 -68.8806 328.299 -68.3484 328.631C-67.8163 328.963 -67.2059 329.139 -66.5851 329.139H-45.6152C-44.8259 329.138 -44.0526 329.357 -43.3833 329.772C-42.7139 330.186 -42.1753 330.779 -41.8284 331.483L2.22368 419.639C2.3872 419.97 2.64255 420.249 2.96112 420.445C3.27969 420.641 3.64887 420.745 4.02701 420.746H28.8095C29.8905 420.745 30.95 421.049 31.866 421.624C32.7819 422.198 33.5173 423.019 33.9875 423.992L59.3366 475.721Z" fill="white"/>
<path d="M1044.69 329.138H1055.61C1055.85 329.138 1056.09 329.076 1056.3 328.958C1056.51 328.839 1056.69 328.668 1056.82 328.462C1056.95 328.255 1057.02 328.019 1057.03 327.777C1057.04 327.534 1056.98 327.294 1056.87 327.078L1013.08 239.36C1012.96 239.127 1012.78 238.932 1012.56 238.796C1012.33 238.659 1012.08 238.587 1011.82 238.587H1000.87C1000.62 238.587 1000.39 238.649 1000.17 238.768C999.963 238.886 999.785 239.057 999.659 239.264C999.532 239.471 999.461 239.707 999.451 239.949C999.442 240.191 999.495 240.432 999.605 240.648L1043.43 328.366C1043.54 328.598 1043.72 328.794 1043.95 328.93C1044.17 329.066 1044.43 329.138 1044.69 329.138Z" fill="white"/>
<path d="M1417.04 329.914H1397.92C1397.63 329.914 1397.34 329.989 1397.08 330.132C1396.83 330.275 1396.61 330.482 1396.45 330.732C1396.3 330.983 1396.21 331.268 1396.2 331.563C1396.18 331.857 1396.25 332.15 1396.38 332.413L1439.99 419.718C1440.14 420.005 1440.36 420.246 1440.63 420.415C1440.9 420.583 1441.22 420.672 1441.54 420.671H1460.65C1460.95 420.672 1461.24 420.597 1461.5 420.454C1461.75 420.311 1461.97 420.104 1462.12 419.853C1462.28 419.603 1462.37 419.317 1462.38 419.023C1462.39 418.729 1462.33 418.436 1462.2 418.173L1418.59 330.867C1418.44 330.58 1418.22 330.339 1417.95 330.171C1417.67 330.003 1417.36 329.914 1417.04 329.914Z" fill="white"/>
<path d="M1228.8 420.798H1232.49C1232.92 420.795 1233.34 420.682 1233.72 420.47C1234.1 420.258 1234.41 419.953 1234.64 419.585C1234.87 419.216 1235 418.796 1235.02 418.364C1235.04 417.932 1234.95 417.502 1234.75 417.114L1191.65 330.814C1191.45 330.391 1191.12 330.035 1190.72 329.785C1190.32 329.534 1189.86 329.4 1189.39 329.397H1185.7C1185.27 329.4 1184.85 329.513 1184.47 329.725C1184.09 329.938 1183.78 330.242 1183.55 330.611C1183.32 330.979 1183.19 331.399 1183.17 331.831C1183.15 332.263 1183.24 332.693 1183.44 333.081L1226.54 419.381C1226.75 419.804 1227.07 420.161 1227.47 420.411C1227.87 420.661 1228.33 420.795 1228.8 420.798Z" fill="white"/>
<path d="M1301.48 329.834H1293.34C1293.02 329.831 1292.71 329.909 1292.44 330.061C1292.16 330.212 1291.93 330.431 1291.77 330.698C1291.6 330.964 1291.51 331.269 1291.49 331.582C1291.48 331.896 1291.55 332.207 1291.69 332.487L1335.33 419.844C1335.48 420.149 1335.72 420.404 1336.01 420.582C1336.3 420.759 1336.63 420.852 1336.98 420.849H1345.09C1345.4 420.852 1345.71 420.774 1345.99 420.623C1346.26 420.471 1346.49 420.252 1346.66 419.985C1346.83 419.719 1346.92 419.414 1346.93 419.101C1346.95 418.787 1346.88 418.476 1346.74 418.196L1303.13 330.839C1302.97 330.534 1302.74 330.279 1302.44 330.101C1302.15 329.924 1301.82 329.831 1301.48 329.834Z" fill="white"/>
<path d="M1082.48 329.834H1072.58C1072.23 329.836 1071.88 329.929 1071.57 330.103C1071.26 330.276 1071.01 330.526 1070.82 330.827C1070.63 331.128 1070.53 331.472 1070.51 331.826C1070.5 332.179 1070.57 332.531 1070.73 332.848L1114.11 419.741C1114.28 420.087 1114.55 420.379 1114.87 420.583C1115.2 420.788 1115.58 420.898 1115.97 420.9H1125.86C1126.21 420.898 1126.56 420.806 1126.87 420.632C1127.18 420.458 1127.43 420.209 1127.62 419.907C1127.81 419.606 1127.91 419.262 1127.93 418.909C1127.94 418.555 1127.87 418.203 1127.71 417.886L1084.33 330.993C1084.16 330.647 1083.89 330.356 1083.57 330.151C1083.24 329.946 1082.86 329.837 1082.48 329.834Z" fill="white"/>
<path d="M978.607 329.652H956.015C955.681 329.652 955.352 329.737 955.061 329.9C954.769 330.062 954.524 330.297 954.348 330.58C954.173 330.864 954.073 331.189 954.058 331.522C954.043 331.856 954.113 332.187 954.263 332.486L997.722 419.508C997.885 419.833 998.135 420.107 998.444 420.298C998.754 420.489 999.11 420.59 999.474 420.59H1022.07C1022.4 420.59 1022.73 420.505 1023.02 420.342C1023.31 420.18 1023.56 419.945 1023.73 419.661C1023.91 419.377 1024.01 419.053 1024.02 418.72C1024.04 418.386 1023.97 418.055 1023.82 417.756L980.359 330.734C980.196 330.409 979.946 330.135 979.637 329.944C979.327 329.753 978.971 329.652 978.607 329.652Z" fill="white"/>
<path d="M1283.91 476.264C1287.89 477.088 1291.09 476.857 1293.51 475.569L1267.06 423.427C1266.65 422.621 1266.02 421.943 1265.25 421.47C1264.48 420.998 1263.6 420.748 1262.7 420.748H1259.87C1259.54 420.748 1259.21 420.833 1258.92 420.996C1258.62 421.158 1258.38 421.393 1258.2 421.677C1258.03 421.961 1257.93 422.285 1257.91 422.618C1257.9 422.952 1257.97 423.284 1258.12 423.582L1283.91 476.264Z" fill="white"/>
<path d="M1391.43 475.438C1397.67 477.619 1402.04 477.516 1404.55 475.129L1378.63 424.405C1378.1 423.365 1377.29 422.493 1376.29 421.884C1375.3 421.275 1374.15 420.953 1372.99 420.953H1369.46C1368.97 420.951 1368.49 421.073 1368.07 421.309C1367.64 421.544 1367.28 421.884 1367.02 422.297C1366.77 422.709 1366.62 423.181 1366.59 423.667C1366.57 424.153 1366.67 424.638 1366.88 425.074L1391.43 475.438Z" fill="white"/>
<path d="M1170.17 475.024C1174.7 477.394 1179.98 477.557 1186.01 475.513L1160.15 423.656C1159.71 422.789 1159.04 422.06 1158.22 421.55C1157.39 421.041 1156.43 420.771 1155.46 420.771H1146.65C1146.29 420.773 1145.94 420.867 1145.63 421.042C1145.32 421.217 1145.06 421.468 1144.87 421.772C1144.68 422.075 1144.57 422.421 1144.56 422.778C1144.54 423.134 1144.61 423.49 1144.77 423.81L1170.17 475.024Z" fill="white"/>
<path d="M1053.93 475.721C1063.59 477.078 1073.19 476.958 1082.73 475.361L1056.54 424.018C1056.08 423.132 1055.38 422.39 1054.54 421.872C1053.69 421.354 1052.71 421.08 1051.72 421.081H1030.67C1030.3 421.079 1029.94 421.17 1029.62 421.348C1029.29 421.525 1029.02 421.782 1028.82 422.094C1028.63 422.407 1028.51 422.764 1028.49 423.132C1028.48 423.5 1028.55 423.867 1028.71 424.198L1053.93 475.721Z" fill="white"/>
<rect width="538.798" height="448.998" transform="matrix(4.37114e-08 1 1 -4.37114e-08 1127.96 -62)" fill="url(#paint0_linear_4042_2008)"/>
<rect width="1624" height="210" transform="matrix(-1 0 0 1 1577 267)" fill="url(#paint1_linear_4042_2008)"/>
</g>
</g>
<defs>
<linearGradient id="paint0_linear_4042_2008" x1="269.399" y1="0" x2="269.399" y2="448.998" gradientUnits="userSpaceOnUse">
<stop stop-color="#98B5EF" stop-opacity="0"/>
<stop offset="1" stop-color="#98B5EF"/>
</linearGradient>
<linearGradient id="paint1_linear_4042_2008" x1="812" y1="0" x2="812" y2="210" gradientUnits="userSpaceOnUse">
<stop stop-color="#98B5EF" stop-opacity="0"/>
<stop offset="1" stop-color="#98B5EF"/>
</linearGradient>
<clipPath id="clip0_4042_2008">
<rect width="1440" height="840" rx="8" fill="white"/>
</clipPath>
</defs>
</svg>
