<svg width="1440" height="840" viewBox="0 0 1440 840" fill="none" xmlns="http://www.w3.org/2000/svg">
<g clip-path="url(#clip0_4042_1977)">
<rect width="1440" height="840" rx="8" fill="#0E1029"/>
<path d="M1301.31 -18.8513C1301.37 -27.4602 1305.56 -37.318 1315.91 -36.9083C1341.03 -35.9258 1369.49 -30.4507 1401.31 -20.4827C1417.54 -15.4114 1431.09 -10.332 1431.15 10.3289C1431.43 128.084 1431.47 199.823 1431.26 225.547C1431.17 235.113 1427.32 241.776 1419.69 245.537C1418.61 246.089 1417.4 246.337 1416.2 246.254C1248.78 234.378 1152.04 227.464 1125.98 225.513C1118.8 224.976 1113.69 223.035 1110.64 219.689C1072.18 177.484 1045.09 147.621 1029.37 130.098C1015.53 114.601 1010.86 102.695 1026.35 86.4456C1060.82 50.3155 1092.12 24.8641 1120.26 10.0914C1121.1 9.65129 1122.03 9.37887 1122.98 9.28834C1132.57 8.31708 1140.3 11.4131 1146.17 18.5764C1216.28 104.007 1256.13 152.653 1265.7 164.514C1270.27 170.195 1279.49 178.378 1287.61 175.484C1298.54 171.521 1300.48 164.672 1300.53 152.531C1300.67 104.646 1300.94 47.5182 1301.31 -18.8513Z" fill="#161933"/>
<path d="M1021.1 708.276C1011.32 696.783 1018.3 682.414 1026.96 672.719C1093.98 597.904 1138.04 548.662 1159.15 524.993C1168.86 514.103 1166.35 496.585 1154.32 490.088C1151.02 488.302 1143.84 487.662 1132.78 488.167C1041.77 492.361 982.167 495.355 953.962 497.148C934.723 498.355 919.387 494.606 916.476 473.909C911.03 435.253 909.911 396.363 913.12 357.238C914.464 340.929 915.911 330.976 917.462 327.381C922.114 316.536 929.435 311.26 939.426 311.553C1112.05 316.468 1198.42 318.925 1198.53 318.925C1222.5 319.911 1224.37 334.297 1224.4 356.812C1224.59 514.83 1224.33 621.005 1223.6 675.338C1223.53 680.695 1221.5 685.837 1217.52 690.764C1192.74 721.067 1167.74 751.708 1142.51 782.689C1131.78 795.878 1119.55 791.721 1105.35 782.494C1073.93 762.135 1045.85 737.396 1021.1 708.276Z" fill="#161933"/>
<path d="M1551.8 710.703C1551.34 710.411 1549.27 708.268 1545.56 704.277C1515.64 671.994 1486.02 639.534 1456.7 606.896C1455.96 606.081 1455.06 605.44 1454.07 605.017C1453.08 604.593 1452.01 604.397 1450.94 604.441C1438.6 604.95 1432.4 612.327 1432.36 626.572C1432 728.406 1431.73 784.298 1431.56 794.246C1431.37 805.284 1425.74 812.924 1414.68 817.167C1382.54 829.597 1349.25 836.807 1314.83 838.796C1313.44 838.887 1312.05 838.554 1310.83 837.837C1304.52 834.119 1301.38 828.448 1301.41 820.825C1301.73 741.918 1301.72 666.514 1301.41 594.614C1301.31 575.41 1304.8 561.714 1324.81 559.842C1386.23 554.179 1465.68 546.916 1563.14 538.052C1565.06 537.869 1566.99 538.164 1568.77 538.912C1570.55 539.659 1572.13 540.837 1573.37 542.347L1622.79 602.457C1623.91 603.839 1624.65 605.514 1624.94 607.306C1626.09 614.278 1626.08 618.958 1624.89 621.345C1609.26 653.15 1590.06 682.023 1567.29 707.963C1565.34 710.197 1562.74 711.688 1559.92 712.187C1557.11 712.685 1554.24 712.162 1551.8 710.703Z" fill="#161933"/>
</g>
<defs>
<clipPath id="clip0_4042_1977">
<rect width="1440" height="840" rx="8" fill="white"/>
</clipPath>
</defs>
</svg>
